<?xml version="1.0" standalone="no"?>
<!DOCTYPE svg PUBLIC "-//W3C//DTD SVG 20010904//EN"
 "http://www.w3.org/TR/2001/REC-SVG-20010904/DTD/svg10.dtd">
<svg version="1.0" xmlns="http://www.w3.org/2000/svg"
 width="720.000000pt" height="676.000000pt" viewBox="0 0 720.000000 676.000000"
 preserveAspectRatio="xMidYMid meet">

<g transform="translate(0.000000,676.000000) scale(0.100000,-0.100000)"
fill="#000000" stroke="none">
<path d="M3295 6164 c-5 -2 -59 -10 -120 -18 -494 -67 -968 -271 -1375 -593
-109 -85 -367 -343 -454 -453 -289 -365 -483 -790 -575 -1260 -61 -314 -60
-742 4 -1056 59 -292 131 -498 264 -759 173 -341 432 -663 731 -910 351 -289
797 -501 1240 -589 47 -9 108 -22 135 -27 113 -22 430 -33 628 -21 184 11 218
15 387 49 120 24 346 91 470 140 552 218 1033 614 1355 1119 137 214 247 452
323 699 69 224 96 371 118 628 16 188 16 216 0 409 -9 114 -21 231 -27 260
-77 377 -132 545 -268 818 -204 409 -524 783 -901 1049 -301 213 -666 378
-1015 456 -222 50 -374 65 -655 64 -140 0 -259 -2 -265 -5z m630 -219 c598
-85 1110 -339 1525 -755 449 -450 707 -997 765 -1620 29 -310 12 -561 -61
-868 -150 -632 -546 -1201 -1094 -1571 -327 -220 -649 -350 -1035 -417 -252
-44 -616 -46 -865 -5 -383 63 -741 205 -1065 424 -433 292 -787 732 -979 1221
-228 577 -245 1228 -47 1808 271 794 888 1406 1686 1672 119 40 137 45 186 55
24 5 87 18 139 29 82 17 136 25 330 46 74 9 410 -4 515 -19z"/>
<path d="M3492 5256 l-37 -34 -5 -169 -5 -168 -125 -5 -125 -5 -5 -355 -6
-355 -62 -200 c-34 -110 -66 -211 -71 -225 -5 -14 -19 -59 -32 -100 -12 -41
-26 -80 -31 -87 -7 -9 -81 -13 -263 -15 -253 -3 -253 -3 -279 -27 -57 -54 -53
-150 7 -195 26 -19 43 -21 230 -24 111 -1 207 -4 213 -7 13 -4 -7 -81 -86
-335 -23 -74 -48 -156 -56 -182 -8 -27 -20 -69 -28 -95 -8 -27 -33 -109 -55
-183 l-42 -135 3 -299 3 -298 41 -37 c39 -34 42 -40 47 -102 2 -36 10 -76 17
-89 l13 -24 15 29 c8 16 17 58 20 93 5 59 8 67 46 102 l41 39 6 293 c4 239 8
303 23 348 9 30 21 69 26 85 13 46 127 419 160 525 16 52 39 129 51 170 12 41
26 81 32 88 7 9 44 12 141 10 l131 -3 6 -60 c9 -99 49 -145 124 -145 75 0 115
46 124 145 l6 60 131 3 c97 2 134 -1 141 -10 10 -13 50 -138 118 -368 19 -63
65 -212 102 -330 l68 -215 5 -290 c5 -310 6 -313 60 -358 24 -21 30 -33 30
-67 0 -52 29 -155 40 -143 13 14 40 114 40 151 0 25 7 40 25 54 53 42 55 54
55 360 0 213 -4 295 -14 333 -8 28 -60 199 -116 380 -56 182 -105 344 -110
360 -4 17 -12 42 -18 56 -5 14 -12 38 -14 55 l-3 29 215 5 c236 6 244 8 282
68 29 46 20 105 -21 146 l-31 31 -259 3 c-187 2 -262 6 -269 15 -5 7 -37 104
-71 217 -35 113 -77 248 -94 300 l-32 95 -5 355 -5 355 -125 5 -125 5 -5 165
c-5 179 -13 204 -66 228 -50 23 -101 15 -142 -22z m216 -1105 c7 -4 19 -30 26
-57 8 -27 40 -132 71 -234 83 -270 88 -287 81 -305 -5 -13 -21 -15 -93 -13
l-88 3 -6 65 c-3 36 -11 75 -18 88 -27 50 -101 73 -155 47 -49 -23 -69 -59
-75 -135 l-6 -65 -92 -3 c-109 -3 -106 -8 -69 114 14 43 50 162 81 264 31 102
59 194 63 205 3 11 10 23 16 27 15 10 248 10 264 -1z"/>
</g>
</svg>
